<?xml version="1.0" encoding="UTF-8" standalone="no"?>
<!DOCTYPE svg PUBLIC "-//W3C//DTD SVG 1.1//EN" "http://www.w3.org/Graphics/SVG/1.1/DTD/svg11.dtd">
<svg version="1.1" xmlns="http://www.w3.org/2000/svg" xmlns:xlink="http://www.w3.org/1999/xlink" preserveAspectRatio="xMidYMid meet" viewBox="0 0 640 640" width="90" height="90"><defs><path d="M291.23 70.68C287.04 80.96 301.54 114.13 341.54 185.46C352.54 205.12 357.52 213.44 363.05 221.35C377.6 242.12 391.01 254.57 396.34 252.1C398.17 251.24 399.15 248.37 398.91 244.69C398.36 237.33 387.81 214.75 369.02 180.92C335.92 121.24 300.26 67 294.14 67C293.85 67 293.26 67.4 292.81 67.91C292.37 68.41 291.68 69.62 291.23 70.68Z" id="bqoCdtEri"></path><path d="M510.72 164.74C504.75 169.88 489.12 185.61 481.37 194.28C465.24 212.33 449.56 232.74 443.3 243.93C441.52 247.11 441.17 248.12 441.17 250.49C441.17 258.65 451.43 269.79 471.02 283C478.61 288.09 531.78 320.6 532.27 320.45C532.52 320.35 537.01 311.23 542.24 300.14C547.42 289.05 552.69 278.26 553.88 276.19C561.13 263.44 568.82 256.28 579.03 252.81C584.06 251.09 587.56 250.59 598.27 250.03C605.27 249.63 608.53 249.23 612.32 248.22C622.44 245.6 630.77 239.9 634.32 233.25C635.8 230.42 636 229.62 636 226.29C636 223.06 635.8 222.11 634.52 219.79C631.91 215 627.61 211.82 619.33 208.7C613.41 206.43 609.66 204.26 605.76 200.83C599.8 195.59 596.94 190.5 596.24 183.75C595.6 178.1 593.78 174.42 589.24 169.73C581.84 162.12 570.94 156.32 557.82 153C553.24 151.84 543.52 150.58 540.81 150.73C540.26 150.78 538.14 150.98 536.12 151.18C527.44 152.04 522.21 154.86 510.72 164.74Z" id="d2nBlSmnX"></path><path d="M4.61 178C6.73 189.34 13.49 200.28 26.01 212.78C39.08 225.79 54.23 236.83 80.12 252.25C105.92 267.57 119.58 278.36 122.59 285.62C123.62 288.09 123.47 288.54 120.76 291.42C114.65 297.87 107.94 317.08 103.1 341.98C99.7 359.47 97.83 366.32 93.39 377.52C86.38 395.06 77.26 409.12 65.67 420.16C51.61 433.52 42.78 454.09 38.59 483.37C37.55 490.78 37.41 511.95 38.39 519.67C40.02 532.87 43.47 546.79 46.78 553.34C49.98 559.69 58.86 565.69 69.42 568.66C72.48 569.52 74.69 569.72 80.86 569.77C89.24 569.82 93.39 569.22 98.86 567.1C103.01 565.54 107.15 561.76 107.64 559.04C108.78 553.34 103.01 547.49 91.02 542.1C80.91 537.56 75.39 528.74 73.86 514.63C72.92 505.8 74.2 495.37 77.65 484.63C80.81 474.75 88.11 462.3 95.06 454.99C100.29 449.45 119.38 435.64 124.36 433.72C125.69 433.22 127.22 432.96 127.91 433.17C130.33 433.77 130.82 435.79 131.27 447.08C131.91 462.91 133.19 473.19 136.59 490.28C139.65 505.55 143.4 519.82 147.94 533.83C155.19 556.01 162.34 565.49 174.67 568.97C177.09 569.62 179.65 569.82 186.41 569.77C196.23 569.72 200.57 569.02 205.55 566.5C209.74 564.38 211.56 561.86 211.56 558.18C211.56 552.28 207.96 546.53 199.09 538.17C184.09 524.1 180.69 520.02 176.3 510.85C168.65 494.97 169.64 478.58 179.55 458.22C189.12 438.46 210.63 410.99 223.25 402.37C233.27 395.51 241.7 394.25 257.93 397.12C286.73 402.27 325.35 408.77 345.48 411.79C348.98 412.35 359.29 413.91 368.31 415.32C377.34 416.68 385.18 417.84 385.77 417.84C385.84 417.84 386.19 417.84 386.81 417.84C386.63 400.51 386.53 390.88 386.51 388.96C386.07 343.69 384.29 325.59 376.45 284.66C376.16 283.16 374.71 275.67 372.11 262.18C326.98 262.03 301.91 261.95 296.89 261.93C222.02 261.68 213.49 261.48 198.49 259.81C170.38 256.59 151.24 248.87 113.61 225.63C108.48 222.46 96.84 215.3 87.77 209.66C50.08 186.32 23.89 172.81 11.17 170.03C7.22 169.23 5.94 169.18 4.76 169.88C3.72 170.49 3.67 172.91 4.61 178Z" id="c4TZW5vE29"></path><path d="M412.57 288.54C408.33 294.95 406.7 305.48 405.91 331.9C404.97 362.39 407.19 544.47 408.67 558.73C409.12 563.12 410.94 564.73 417.75 566.85C425.44 569.17 445.22 570.33 457.4 569.12C469.49 567.91 469.44 566.09 457.2 556.06C445.71 546.69 440.98 540.54 438.07 531.26C436.39 526.02 435.9 521.88 435.95 514.68C436 507.12 436.49 502.53 438.22 493.96C441.57 477.17 450.55 450.25 457.8 435.03C464.01 422.03 468.7 419.05 471.95 426.11C473.19 428.83 479.45 446.02 491.09 478.58C506.08 520.62 510.23 531.26 515.26 540.84C524.73 558.73 533.8 565.34 552.64 567.76C566.06 569.52 576.12 569.22 580.26 566.9C587.07 563.07 582.98 555.96 563.35 537.36C557.82 532.12 556.15 530.15 552.84 525.06C535.68 498.5 518.22 443.55 512.84 399.19C512 392.08 512 373.68 512.89 369.7C513.63 366.38 514.86 363.5 517.38 359.47C519.89 355.44 519.99 351.91 517.87 347.37C515.9 343.24 508.3 335.27 501.05 329.78C492.62 323.38 460.81 302.36 446.65 293.89C433.38 285.92 424.16 282.55 419.03 283.81C416.12 284.51 414.39 285.77 412.57 288.54Z" id="a36SuuEoPY"></path></defs><g><g><g><use xlink:href="#bqoCdtEri" opacity="1" fill="#fd7e14" fill-opacity="1"></use><g><use xlink:href="#bqoCdtEri" opacity="1" fill-opacity="0" stroke="#000000" stroke-width="1" stroke-opacity="0"></use></g></g><g><use xlink:href="#d2nBlSmnX" opacity="1" fill="#fd7e14" fill-opacity="1"></use><g><use xlink:href="#d2nBlSmnX" opacity="1" fill-opacity="0" stroke="#000000" stroke-width="1" stroke-opacity="0"></use></g></g><g><use xlink:href="#c4TZW5vE29" opacity="1" fill="#fd7e14" fill-opacity="1"></use><g><use xlink:href="#c4TZW5vE29" opacity="1" fill-opacity="0" stroke="#000000" stroke-width="1" stroke-opacity="0"></use></g></g><g><use xlink:href="#a36SuuEoPY" opacity="1" fill="#fd7e14" fill-opacity="1"></use><g><use xlink:href="#a36SuuEoPY" opacity="1" fill-opacity="0" stroke="#000000" stroke-width="1" stroke-opacity="0"></use></g></g></g></g></svg>